<?xml version="1.0" encoding="UTF-8" standalone="no"?>
<!-- Created with Inkscape (http://www.inkscape.org/) -->

<svg
   width="210mm"
   height="210mm"
   viewBox="0 0 210 210"
   version="1.1"
   id="svg5"
   xmlns:xlink="http://www.w3.org/1999/xlink"
   xmlns="http://www.w3.org/2000/svg"
   xmlns:svg="http://www.w3.org/2000/svg">
  <defs
     id="defs2">
    <linearGradient
       id="linearGradient30201">
      <stop
         style="stop-color:#4beffa;stop-opacity:1"
         offset="0"
         id="stop30197" />
      <stop
         style="stop-color:#000aa0;stop-opacity:1"
         offset="1"
         id="stop30199" />
    </linearGradient>
    <radialGradient
       xlink:href="#linearGradient30201"
       id="radialGradient30207"
       cx="569.66766"
       cy="58.605549"
       fx="569.66766"
       fy="58.605549"
       r="19.571226"
       gradientTransform="matrix(-1.3052875,0.13330853,-0.26690556,-2.6133999,1330.9139,121.28115)"
       gradientUnits="userSpaceOnUse" />
    <radialGradient
       xlink:href="#linearGradient30201"
       id="radialGradient55704"
       cx="570.93878"
       cy="65.745476"
       fx="570.93878"
       fy="65.745476"
       r="18.778366"
       gradientTransform="matrix(1,0,0,1.4560318,-161.92343,54.554772)"
       gradientUnits="userSpaceOnUse" />
  </defs>
  <g
     id="layer1">
    <path
       id="path57075"
       style="fill:none;fill-opacity:0.154762;stroke:#000000;stroke-width:1.5875;stroke-linejoin:bevel;paint-order:stroke markers fill"
       d="m 222.9589,-93.652948 a 53.227409,51.323563 0 0 1 -53.22741,51.32357 53.227409,51.323563 0 0 1 -53.22741,-51.32357 53.227409,51.323563 0 0 1 53.22741,-51.323562 53.227409,51.323563 0 0 1 53.22741,51.323562 z" />
    <circle
       style="fill:#ff5555;stroke:#d40000;stroke-width:2.64583;stroke-linecap:round;stroke-linejoin:round;paint-order:fill markers stroke"
       id="path1198"
       cx="-192.88193"
       cy="-116.74001"
       r="58.499996" />
    <g
       aria-label="A"
       id="g21135"
       style="font-size:85.974px;line-height:1.25;font-family:'Cooper Black';-inkscape-font-specification:'Cooper Black, ';letter-spacing:0px;word-spacing:0px;opacity:1;fill:#ff8080;stroke-width:0.264583"
       transform="translate(-220.62911,-261.7283)">
      <path
         d="m 48.128223,144.90433 7.93413,17.00169 q 1.13344,2.35086 1.88907,3.10649 0.75564,0.71365 2.30888,0.96552 3.02252,0.46178 3.02252,3.06451 0,3.0645 -3.6942,4.40784 -3.69419,1.34335 -12.09009,1.34335 -9.48736,0 -14.06313,-0.79761 -2.098973,-0.37782 -3.358358,-1.51126 -1.217405,-1.17543 -1.217405,-2.81263 0,-1.25938 0.629692,-1.93106 0.671672,-0.71365 2.434811,-1.30136 1.97304,-0.67167 1.97304,-2.26689 0,-2.81263 -3.400343,-3.31638 -3.652216,-0.50376 -10.284975,-0.50376 -5.583273,0 -6.67474,0.67167 -0.671671,0.4198 -1.175425,1.51127 -0.503754,1.09146 -0.503754,2.09897 0,0.92355 0.335836,1.21741 0.377815,0.25187 2.350851,0.88157 2.560749,0.75563 2.560749,3.02252 0,4.99556 -11.964155,4.99556 -6.800678,0 -9.991119,-0.92355 -2.938564,-0.88157 -2.938564,-3.86211 0,-1.30137 0.629692,-2.01502 0.671672,-0.71365 2.350852,-1.30136 2.728667,-0.96553 4.11399,-2.68669 1.427302,-1.76314 4.030031,-7.47235 l 5.919108,-12.97166 q 3.274401,-7.13652 4.365867,-10.66279 1.133447,-3.56826 1.175426,-6.9686 0.04198,-3.61024 0.419795,-4.99556 0.419795,-1.4273 1.805118,-2.77065 2.896585,-2.93856 7.388391,-2.93856 4.239928,0 8.102039,3.31638 5.37338,4.53378 15.61637,26.4051 z M 18.9105,150.19375 h 8.227981 q 2.266892,0 2.266892,-1.00751 0,-1.38533 -3.148462,-6.80068 -1.427302,-2.47679 -2.182933,-3.31638 -0.755631,-0.83959 -1.595221,-0.83959 -1.511262,0 -2.518769,2.81263 -0.167918,0.37781 -1.217406,2.98054 -1.763138,4.28191 -1.763138,5.1215 0,1.04949 1.931056,1.04949 z"
         id="path21133"
         style="fill:#ff8080" />
    </g>
    <g
       aria-label="A"
       id="text15819"
       style="font-size:85.974px;line-height:1.25;font-family:'Cooper Black';-inkscape-font-specification:'Cooper Black, ';letter-spacing:0px;word-spacing:0px;opacity:0.31;fill:#800000;stroke-width:0.264583"
       transform="translate(-428.37599,-241.00502)">
      <path
         d="m 115.8013,128.46202 7.93413,17.00169 c 0.75563,1.56724 1.38532,2.60274 1.88907,3.10649 0.50376,0.47577 1.27339,0.79761 2.30888,0.96552 2.01501,0.30785 3.02252,1.32936 3.02252,3.06451 0,2.043 -1.2314,3.51228 -3.6942,4.40784 -2.46279,0.89557 -6.49282,1.34335 -12.09009,1.34335 -6.32491,0 -11.01262,-0.26587 -14.06313,-0.79761 -1.399315,-0.25188 -2.518768,-0.75563 -3.358358,-1.51126 -0.811603,-0.78362 -1.217405,-1.72116 -1.217405,-2.81263 0,-0.83959 0.209897,-1.48327 0.629692,-1.93106 0.447781,-0.47577 1.259385,-0.90955 2.434811,-1.30136 1.31536,-0.44778 1.97304,-1.20341 1.97304,-2.26689 0,-1.87509 -1.13345,-2.98055 -3.400343,-3.31638 -2.434811,-0.33584 -5.863136,-0.50376 -10.284975,-0.50376 -3.722182,0 -5.947095,0.22389 -6.67474,0.67167 -0.447781,0.27987 -0.839589,0.78362 -1.175425,1.51127 -0.335836,0.72764 -0.503754,1.4273 -0.503754,2.09897 0,0.6157 0.111945,1.0215 0.335836,1.21741 0.251877,0.16791 1.035494,0.46177 2.350851,0.88157 1.707166,0.50375 2.560749,1.51126 2.560749,3.02252 0,3.33037 -3.988052,4.99556 -11.964155,4.99556 -4.533785,0 -7.864158,-0.30785 -9.991119,-0.92355 -1.959043,-0.58771 -2.938564,-1.87508 -2.938564,-3.86211 0,-0.86758 0.209897,-1.53925 0.629692,-2.01502 0.447781,-0.47577 1.231399,-0.90955 2.350852,-1.30136 1.819111,-0.64369 3.190441,-1.53925 4.11399,-2.68669 0.951535,-1.17543 2.294878,-3.66621 4.030031,-7.47235 l 5.919108,-12.97166 c 2.182934,-4.75768 3.638223,-8.31194 4.365867,-10.66279 0.755631,-2.37884 1.14744,-4.70171 1.175426,-6.9686 0.02799,-2.40683 -0.975825,-4.0765 0.419795,-4.99556 1.36797,-0.90085 3.119665,2.11081 4.660887,1.55627 2.685904,-0.96639 1.816182,-6.388587 4.532622,-7.26548 1.373132,-0.44326 2.68678,3.10409 4.08175,2.37479 2.054764,-1.07424 -1.70713,-6.441649 0.558751,-6.93341 12.779578,-2.773534 12.249248,19.69922 19.077908,34.2801 z m -29.217723,5.28942 c 1.351383,-0.90979 0.212296,-4.4357 1.838766,-4.5282 2.424068,-0.13786 1.142005,7.02041 3.48794,6.39455 1.001131,-0.26709 -0.924673,-2.52392 -0.06862,-3.10768 0.886467,-0.6045 1.896999,1.25331 2.96989,1.24133 0.826849,-0.009 1.975987,-0.23347 2.266892,-1.00751 0.878816,-2.33836 -2.165998,-4.50394 -3.148462,-6.80068 -0.228968,-0.53527 -0.392595,-1.09802 -0.639452,-1.62528 -0.270969,-0.57875 -0.283204,-1.63668 -0.920672,-1.68161 -0.291078,-0.0205 -0.236071,0.74906 -0.523937,0.7013 -0.391865,-0.065 -0.07802,-0.9929 -0.366716,-1.13384 -0.699117,-0.34131 -0.423089,1.48001 -0.993155,1.40864 -0.933347,-0.11685 -0.06671,-2.64023 -1.007333,-2.63598 -1.794537,0.008 -1.010381,3.4743 -1.876254,5.04614 -0.314976,0.57179 -0.87884,0.98224 -1.18681,1.55783 -0.851775,1.59195 -2.417228,3.43865 -1.763138,5.1215 0.265406,0.68284 1.221028,0.86901 1.931056,1.04949 z"
         id="path21031"
         style="fill:#800000" />
    </g>
    <path
       style="color:#000000;fill:#000000;stroke-linejoin:bevel;-inkscape-stroke:none;paint-order:stroke markers fill"
       d="m -244.63207,-245.75729 c -15.66864,0 -28.11328,14.91184 -28.11328,32.95899 0,18.04715 -27.70921,-17.92368 -12.04057,-17.92368 15.66865,0 68.26713,35.97083 68.26713,17.92368 0,-18.04715 -12.44464,-32.95899 -28.11328,-32.95899 z m 0,3.26563 c -5.36078,-12.47841 24.84766,13.13778 24.84766,29.69336 0,16.55558 -11.26648,29.69531 -24.84766,29.69531 -13.58117,0 -36.98041,-40.95957 -24.84765,-29.69531 39.63154,36.79457 43.47326,13.66192 24.84765,-29.69336 z"
       id="path25053" />
    <path
       id="path25699"
       style="opacity:1;fill:url(#radialGradient30207);fill-opacity:1;stroke:none;stroke-width:1.5875;stroke-linejoin:bevel;stroke-miterlimit:4;stroke-dasharray:none;paint-order:stroke markers fill"
       d="m 589.64609,39.660694 c 2.15708,5.383071 -4.48509,7.42799 -9.94769,12.088918 -1.92587,1.643237 -3.70512,3.611632 -4.90048,6.166103 -1.03924,2.220841 -1.31518,4.6402 -1.11129,7.106597 0.10712,1.295822 0.3467,2.604628 0.67761,3.904449 0.29246,1.148733 0.65625,2.290448 1.06301,3.409982 2.79501,7.69271 7.61872,14.338114 5.26528,15.0165 -5.05717,1.457742 -33.19229,-53.642252 -27.40584,-53.674672 6.98113,-0.03911 9.26162,14.815391 16.0975,13.398148 5.2578,-1.09007 1.89684,-14.21338 7.26392,-14.378103 2.21698,-0.06804 1.50825,4.521654 3.35908,5.743981 2.70237,1.78471 8.43429,-1.788052 9.6389,1.218097 z" />
    <path
       id="path28366"
       style="opacity:1;fill:none;stroke:#000000;stroke-width:1.64599;stroke-linejoin:bevel;stroke-miterlimit:4;stroke-dasharray:none;paint-order:stroke markers fill"
       d="m 416.71769,42.475525 c 2.91757,7.280903 -10.26226,8.454969 -14.84817,18.255021 -5.38347,11.504435 9.71574,28.336073 5.89461,29.437523 -5.05717,1.45775 -33.19229,-53.642247 -27.40584,-53.674667 6.98113,-0.03911 9.26162,14.815391 16.0975,13.398148 5.2578,-1.09007 1.89684,-14.21338 7.26392,-14.378103 2.21698,-0.06804 1.50825,4.521654 3.35908,5.743981 2.70237,1.78471 8.43429,-1.788052 9.6389,1.218097 z"
       transform="matrix(1.2146352,0,0,0.76581724,47.308924,-131.59174)" />
    <path
       id="mirror-path-effect28387"
       d="m 416.71769,42.475525 c 2.91757,7.280903 -10.26226,8.454969 -14.84817,18.255021 -5.38347,11.504435 9.71574,28.336073 5.89461,29.437523 -5.05717,1.45775 -33.19229,-53.642247 -27.40584,-53.674667 6.98113,-0.03911 9.26162,14.815391 16.0975,13.398148 5.2578,-1.09007 1.89684,-14.21338 7.26392,-14.378103 2.21698,-0.06804 1.50825,4.521654 3.35908,5.743981 2.70237,1.78471 8.43429,-1.788052 9.6389,1.218097 z"
       style="opacity:1;fill:none;stroke:#000000;stroke-width:1.47667;stroke-linejoin:bevel;stroke-miterlimit:4;stroke-dasharray:none;paint-order:stroke markers fill"
       transform="matrix(-0.73560998,0.60940088,0.96654883,0.46379588,763.44979,-355.36713)" />
    <use
       x="0"
       y="0"
       xlink:href="#path25699"
       transform="translate(-121.72972,-97.824583)"
       id="use29264"
       width="100%"
       height="100%"
       style="fill:url(#radialGradient55704);fill-opacity:1" />
    <text
       xml:space="preserve"
       style="font-size:50.8px;line-height:1.25;font-family:'Belwe Bd BT';-inkscape-font-specification:'Belwe Bd BT';letter-spacing:0px;word-spacing:0px;writing-mode:lr-tb;stroke-width:0.264583"
       x="272.77356"
       y="-162.58342"
       id="text2380"><tspan
         id="tspan2378"
         style="font-style:normal;font-variant:normal;font-weight:normal;font-stretch:normal;font-family:'Eras Bold ITC';-inkscape-font-specification:'Eras Bold ITC';stroke-width:0.264583"
         x="272.77356"
         y="-162.58342">defy</tspan></text>
    <text
       xml:space="preserve"
       style="font-size:50.8px;line-height:1.25;font-family:'Eras Demi ITC';-inkscape-font-specification:'Eras Demi ITC';letter-spacing:0px;word-spacing:0px;writing-mode:lr-tb;stroke-width:0.264583"
       x="415.12607"
       y="-160.56763"
       id="text48648"><tspan
         id="tspan48646"
         style="font-style:normal;font-variant:normal;font-weight:normal;font-stretch:normal;font-family:'Berlin Sans FB Demi';-inkscape-font-specification:'Berlin Sans FB Demi';stroke-width:0.264583"
         x="415.12607"
         y="-160.56763">revolt</tspan></text>
    <text
       xml:space="preserve"
       style="font-size:33.4989px;line-height:1.25;font-family:'Eras Demi ITC';-inkscape-font-specification:'Eras Demi ITC';letter-spacing:1.09744px;word-spacing:0px;writing-mode:lr-tb;fill:#ffffff;stroke:none;stroke-width:0.191768"
       id="text56775"
       transform="matrix(1.3646254,0,0,1.3949469,-126.77844,230.42243)"><textPath
         xlink:href="#path57075"
         id="textPath75225"
         style="font-style:normal;font-variant:normal;font-weight:normal;font-stretch:normal;font-size:33.4989px;font-family:Chicle;-inkscape-font-specification:Chicle;stroke-width:0.191768;stroke:none">where do we go from here</textPath></text>
    <path
       id="path2426"
       style="fill:#ff2a7f;fill-opacity:0.154762;stroke:#aa0044;stroke-width:1.5875;stroke-linejoin:bevel;paint-order:stroke markers fill"
       d="m -77.32622,105.02793 c 19.520196,28.08335 -1.688066,99.18043 -35.75648,96.17114 -67.04613,-5.92224 -101.92111,-184.5936 -36.1019,-198.6679594 41.05974,-8.7799516 -7.80184,104.3088294 30.13326,122.3065494 13.91016,6.59946 26.705409,-16.42533 41.725109,-19.80973 z" />
    <g
       id="g3162"
       transform="matrix(0.24620721,0,0,0.24407477,140.88782,65.277062)"
       style="stroke-width:4.07932">
      <use
         x="0"
         y="0"
         xlink:href="#path2426"
         transform="rotate(45,-47.276575,160.09608)"
         id="use3040"
         width="100%"
         height="100%"
         style="stroke-width:4.07932" />
      <use
         x="0"
         y="0"
         xlink:href="#path2426"
         transform="rotate(90,-95.970177,181.81971)"
         id="use3042"
         width="100%"
         height="100%"
         style="stroke-width:4.07932" />
      <use
         x="0"
         y="0"
         xlink:href="#path2426"
         transform="rotate(135,-116.13973,190.81793)"
         id="use3044"
         width="100%"
         height="100%"
         style="stroke-width:4.07932" />
      <use
         x="0"
         y="0"
         xlink:href="#path2426"
         transform="rotate(180,-130.40175,197.18063)"
         id="use3046"
         width="100%"
         height="100%"
         style="stroke-width:4.07932" />
      <use
         x="0"
         y="0"
         xlink:href="#path2426"
         transform="rotate(-135,-144.66377,203.54335)"
         id="use3048"
         width="100%"
         height="100%"
         style="stroke-width:4.07932" />
      <use
         x="0"
         y="0"
         xlink:href="#path2426"
         transform="rotate(-90,-164.83331,212.54156)"
         id="use3050"
         width="100%"
         height="100%"
         style="stroke-width:4.07932" />
      <use
         x="0"
         y="0"
         xlink:href="#path2426"
         transform="rotate(-45,-213.52691,234.2652)"
         id="use3052"
         width="100%"
         height="100%"
         style="fill:#ffd5d5;stroke:#ff2a2a;stroke-width:4.07932" />
      <use
         x="0"
         y="0"
         xlink:href="#path2426"
         transform="translate(-30.721849,-68.863148)"
         id="use3054"
         width="100%"
         height="100%"
         style="stroke-width:4.07932" />
    </g>
  </g>
</svg>
