<?xml version="1.0" encoding="UTF-8" standalone="no"?>
<!-- Created with Inkscape (http://www.inkscape.org/) -->

<svg
   width="210mm"
   height="210mm"
   viewBox="0 0 210 210"
   version="1.1"
   id="svg5"
   xmlns:xlink="http://www.w3.org/1999/xlink"
   xmlns="http://www.w3.org/2000/svg"
   xmlns:svg="http://www.w3.org/2000/svg">
  <defs
     id="defs2" />
  <g
     id="layer1">
    <path
       id="curve"
       d="m 155,100 a 53.227409,51.323563 0 0 1 -53.22741,51.32357 53.227409,51.323563 0 0 1 -53.22741,-51.32357 53.227409,51.323563 0 0 1 53.22741,-51.323562 53.227409,51.323563 0 0 1 53.22741,51.323562 z" />
    <text width="210">
       <textPath
         xlink:href="#curve"
         >where do we go from here
      </textPath>
   </text>
    <g
       id="g3162"
       transform="matrix(0.24620721,0,0,0.24407477,140.88782,65.277062)"
       style="stroke-width:4.07932">
      <path
         id="use3040"
         style="fill:#ff2a7f;fill-opacity:0.154762;stroke:#aa0044;stroke-width:1.5875;stroke-linejoin:bevel;paint-order:stroke markers fill"
         d="m -29.58582,99.90871 c -6.055065,33.66079 -71.3248,68.93751 -93.28692,42.71962 C -166.09385,91.031896 -64.414457,-59.968169 -7.9211722,-23.379034 27.320812,-0.5537766 -87.195387,44.861713 -73.09753,84.412189 c 5.169445,14.502491 30.498038,7.269114 43.511702,15.496513 z" />
      <path
         id="use3042"
         style="fill:#ff2a7f;fill-opacity:0.154762;stroke:#aa0044;stroke-width:1.5875;stroke-linejoin:bevel;paint-order:stroke markers fill"
         d="m -19.178397,200.46367 c -28.08335,19.52019 -99.180433,-1.68807 -96.171143,-35.75648 5.92224,-67.046133 184.593603,-101.921113 198.667962,-36.1019 8.779952,41.05974 -104.308829,-7.80184 -122.306549,30.13326 -6.59946,13.91016 16.42533,26.70541 19.80973,41.72511 z" />
      <path
         id="use3044"
         style="fill:#ff2a7f;fill-opacity:0.154762;stroke:#aa0044;stroke-width:1.5875;stroke-linejoin:bevel;paint-order:stroke markers fill"
         d="m -82.922335,278.92592 c -33.660795,-6.05507 -68.937515,-71.3248 -42.719615,-93.28692 51.596428,-43.22111 202.596493,58.45828 166.007358,114.95157 -22.825257,35.24198 -68.240746,-79.27422 -107.791222,-65.17636 -14.502492,5.16944 -7.269114,30.49804 -15.496514,43.5117 z" />
      <path
         id="use3046"
         style="fill:#ff2a7f;fill-opacity:0.154762;stroke:#aa0044;stroke-width:1.5875;stroke-linejoin:bevel;paint-order:stroke markers fill"
         d="m -183.47728,289.33333 c -19.5202,-28.08335 1.68807,-99.18043 35.75648,-96.17114 67.04613,5.92224 101.92111,184.5936 36.1019,198.66796 -41.05974,8.77995 7.80184,-104.30883 -30.13326,-122.30655 -13.91016,-6.59946 -26.70541,16.42533 -41.72511,19.80973 z" />
      <path
         id="use3048"
         style="fill:#ff2a7f;fill-opacity:0.154762;stroke:#aa0044;stroke-width:1.5875;stroke-linejoin:bevel;paint-order:stroke markers fill"
         d="m -261.93953,225.58943 c 6.05506,-33.66079 71.3248,-68.93751 93.28691,-42.71961 43.22112,51.59643 -58.45827,202.59649 -114.95156,166.00736 -35.24198,-22.82526 79.27422,-68.24075 65.17636,-107.79123 -5.16945,-14.50249 -30.49804,-7.26911 -43.5117,-15.49651 z" />
      <path
         id="use3050"
         style="fill:#ff2a7f;fill-opacity:0.154762;stroke:#aa0044;stroke-width:1.5875;stroke-linejoin:bevel;paint-order:stroke markers fill"
         d="m -272.34694,125.03447 c 28.08335,-19.5202 99.18043,1.68807 96.17114,35.75648 -5.92224,67.04613 -184.5936,101.92111 -198.66796,36.1019 -8.77995,-41.05974 104.30883,7.80184 122.30655,-30.13326 6.59946,-13.91016 -16.42533,-26.70541 -19.80973,-41.72511 z" />
      <path
         id="use3052"
         style="fill:#ff2a7f;fill-opacity:0.154762;stroke:#aa0044;stroke-width:1.5875;stroke-linejoin:bevel;paint-order:stroke markers fill"
         d="m -208.60303,46.572218 c 33.66079,6.055065 68.93751,71.324802 42.71962,93.286912 -51.59643,43.22112 -202.5965,-58.458275 -166.00736,-114.95156 22.82525,-35.241984 68.24074,79.27421 107.79122,65.176358 14.50249,-5.169445 7.26911,-30.498038 15.49651,-43.511702 z" />
      <path
         id="use3054"
         style="fill:#ff2a7f;fill-opacity:0.154762;stroke:#aa0044;stroke-width:1.5875;stroke-linejoin:bevel;paint-order:stroke markers fill"
         d="m -108.04807,36.164782 c 19.520197,28.08335 -1.68807,99.180428 -35.75648,96.171138 -67.04613,-5.92224 -101.92111,-184.593598 -36.1019,-198.667957 41.05974,-8.779952 -7.80184,104.308829 30.13326,122.306549 13.91016,6.59946 26.70541,-16.42533 41.72511,-19.80973 z" />
    </g>
  </g>
</svg>
