<?xml version="1.0" encoding="UTF-8"?>
<!-- Created with Inkscape (http://www.inkscape.org/) -->
<svg width="210mm" height="297mm" version="1.1" viewBox="0 0 210 297" xmlns="http://www.w3.org/2000/svg" xmlns:xlink="http://www.w3.org/1999/xlink">
 <defs>
  <radialGradient id="radialGradient30207" cx="569.67" cy="58.606" r="15" gradientTransform="matrix(-1.3053 .13331 -.26691 -2.6134 1330.9 121.28)" gradientUnits="userSpaceOnUse">
   <stop stop-color="#4beffa" offset="0"/>
   <stop stop-color="#000aa0" offset="1"/>
   <!-- <animate attributeName="r" dur="5s" repeatCount="indefinite" values="10;15;10"/> -->
   <animate attributeName="cx" dur="5s" repeatCount="indefinite" values="570;550;570"/>
   <animate attributeName="cy" dur="5s" repeatCount="indefinite" values="60;50;60"/>
  </radialGradient>
 </defs>
 <circle cx="-192.88" cy="-116.74" r="58.5" fill="#f55" stroke="#d40000" stroke-linecap="round" stroke-linejoin="round" stroke-width="2.6458" style="paint-order:fill markers stroke"/>
 <g transform="translate(-220.63 -261.73)" fill="#ff8080" stroke-width=".26458" aria-label="A">
  <path d="m48.128 144.9 7.9341 17.002q1.1334 2.3509 1.8891 3.1065 0.75564 0.71365 2.3089 0.96552 3.0225 0.46178 3.0225 3.0645 0 3.0645-3.6942 4.4078-3.6942 1.3434-12.09 1.3434-9.4874 0-14.063-0.79761-2.099-0.37782-3.3584-1.5113-1.2174-1.1754-1.2174-2.8126 0-1.2594 0.62969-1.9311 0.67167-0.71365 2.4348-1.3014 1.973-0.67167 1.973-2.2669 0-2.8126-3.4003-3.3164-3.6522-0.50376-10.285-0.50376-5.5833 0-6.6747 0.67167-0.67167 0.4198-1.1754 1.5113-0.50375 1.0915-0.50375 2.099 0 0.92355 0.33584 1.2174 0.37782 0.25187 2.3509 0.88157 2.5607 0.75563 2.5607 3.0225 0 4.9956-11.964 4.9956-6.8007 0-9.9911-0.92355-2.9386-0.88157-2.9386-3.8621 0-1.3014 0.62969-2.015 0.67167-0.71365 2.3509-1.3014 2.7287-0.96553 4.114-2.6867 1.4273-1.7631 4.03-7.4724l5.9191-12.972q3.2744-7.1365 4.3659-10.663 1.1334-3.5683 1.1754-6.9686 0.04198-3.6102 0.4198-4.9956 0.4198-1.4273 1.8051-2.7706 2.8966-2.9386 7.3884-2.9386 4.2399 0 8.102 3.3164 5.3734 4.5338 15.616 26.405zm-29.218 5.2894h8.228q2.2669 0 2.2669-1.0075 0-1.3853-3.1485-6.8007-1.4273-2.4768-2.1829-3.3164t-1.5952-0.83959q-1.5113 0-2.5188 2.8126-0.16792 0.37781-1.2174 2.9805-1.7631 4.2819-1.7631 5.1215 0 1.0495 1.9311 1.0495z" fill="#ff8080"/>
 </g>
 <g transform="translate(-441.59 -255.2)" fill="#800000" opacity=".31" stroke-width=".26458" aria-label="A">
  <path d="m115.8 128.46 7.9341 17.002c0.75563 1.5672 1.3853 2.6027 1.8891 3.1065 0.50376 0.47577 1.2734 0.79761 2.3089 0.96552 2.015 0.30785 3.0225 1.3294 3.0225 3.0645 0 2.043-1.2314 3.5123-3.6942 4.4078-2.4628 0.89557-6.4928 1.3434-12.09 1.3434-6.3249 0-11.013-0.26587-14.063-0.79761-1.3993-0.25188-2.5188-0.75563-3.3584-1.5113-0.8116-0.78362-1.2174-1.7212-1.2174-2.8126 0-0.83959 0.2099-1.4833 0.62969-1.9311 0.44778-0.47577 1.2594-0.90955 2.4348-1.3014 1.3154-0.44778 1.973-1.2034 1.973-2.2669 0-1.8751-1.1334-2.9806-3.4003-3.3164-2.4348-0.33584-5.8631-0.50376-10.285-0.50376-3.7222 0-5.9471 0.22389-6.6747 0.67167-0.44778 0.27987-0.83959 0.78362-1.1754 1.5113-0.33584 0.72764-0.50375 1.4273-0.50375 2.099 0 0.6157 0.11194 1.0215 0.33584 1.2174 0.25188 0.16791 1.0355 0.46177 2.3509 0.88157 1.7072 0.50375 2.5607 1.5113 2.5607 3.0225 0 3.3304-3.9881 4.9956-11.964 4.9956-4.5338 0-7.8642-0.30785-9.9911-0.92355-1.959-0.58771-2.9386-1.8751-2.9386-3.8621 0-0.86758 0.2099-1.5392 0.62969-2.015 0.44778-0.47577 1.2314-0.90955 2.3509-1.3014 1.8191-0.64369 3.1904-1.5392 4.114-2.6867 0.95154-1.1754 2.2949-3.6662 4.03-7.4724l5.9191-12.972c2.1829-4.7577 3.6382-8.3119 4.3659-10.663 0.75563-2.3788 1.1474-4.7017 1.1754-6.9686 0.02799-2.4068-0.97582-4.0765 0.4198-4.9956 1.368-0.90085 3.1197 2.1108 4.6609 1.5563 2.6859-0.96639 1.8162-6.3886 4.5326-7.2655 1.3731-0.44326 2.6868 3.1041 4.0818 2.3748 2.0548-1.0742-1.7071-6.4416 0.55875-6.9334 12.78-2.7735 12.249 19.699 19.078 34.28zm-29.218 5.2894c1.3514-0.90979 0.2123-4.4357 1.8388-4.5282 2.4241-0.13786 1.142 7.0204 3.4879 6.3946 1.0011-0.26709-0.92467-2.5239-0.06862-3.1077 0.88647-0.6045 1.897 1.2533 2.9699 1.2413 0.82685-9e-3 1.976-0.23347 2.2669-1.0075 0.87882-2.3384-2.166-4.5039-3.1485-6.8007-0.22897-0.53527-0.3926-1.098-0.63945-1.6253-0.27097-0.57875-0.2832-1.6367-0.92067-1.6816-0.29108-0.0205-0.23607 0.74906-0.52394 0.7013-0.39186-0.065-0.07802-0.9929-0.36672-1.1338-0.69912-0.34131-0.42309 1.48-0.99316 1.4086-0.93335-0.11685-0.06671-2.6402-1.0073-2.636-1.7945 8e-3 -1.0104 3.4743-1.8763 5.0461-0.31498 0.57179-0.87884 0.98224-1.1868 1.5578-0.85178 1.592-2.4172 3.4386-1.7631 5.1215 0.26541 0.68284 1.221 0.86901 1.9311 1.0495z" fill="#800000"/>
 </g>
 <path d="m-244.63-245.76c-15.669 0-28.113 14.912-28.113 32.959s-27.709-17.924-12.041-17.924c15.669 0 68.267 35.971 68.267 17.924s-12.445-32.959-28.113-32.959zm0 3.2656c-5.3608-12.478 24.848 13.138 24.848 29.693s-11.266 29.695-24.848 29.695c-13.581 0-36.98-40.96-24.848-29.695 39.632 36.795 43.473 13.662 24.848-29.693z" color="#000000" stroke-linejoin="bevel" style="-inkscape-stroke:none;paint-order:stroke markers fill"/>
 <path id="path25699" d="m589.65 39.661c2.1571 5.3831-4.4851 7.428-9.9477 12.089-1.9259 1.6432-3.7051 3.6116-4.9005 6.1661-1.0392 2.2208-1.3152 4.6402-1.1113 7.1066 0.10712 1.2958 0.3467 2.6046 0.67761 3.9044 0.29246 1.1487 0.65625 2.2904 1.063 3.41 2.795 7.6927 7.6187 14.338 5.2653 15.016-5.0572 1.4577-33.192-53.642-27.406-53.675 6.9811-0.03911 9.2616 14.815 16.098 13.398 5.2578-1.0901 1.8968-14.213 7.2639-14.378 2.217-0.06804 1.5082 4.5217 3.3591 5.744 2.7024 1.7847 8.4343-1.7881 9.6389 1.2181z" fill="url(#radialGradient30207)" style="paint-order:stroke markers fill"/>
 <path transform="matrix(1.2146 0 0 .76582 -191.58 -77.743)" d="m416.72 42.476c2.9176 7.2809-10.262 8.455-14.848 18.255-5.3835 11.504 9.7157 28.336 5.8946 29.438-5.0572 1.4578-33.192-53.642-27.406-53.675 6.9811-0.03911 9.2616 14.815 16.098 13.398 5.2578-1.0901 1.8968-14.213 7.2639-14.378 2.217-0.06804 1.5082 4.5217 3.3591 5.744 2.7024 1.7847 8.4343-1.7881 9.6389 1.2181z" fill="none" stroke="#000" stroke-linejoin="bevel" stroke-width="1.646" style="paint-order:stroke markers fill"/>
 <path d="m237.99-21.284c4.8912 5.1548 15.721-2.3324 28.567-0.58188 15.08 2.055 20.241 19.063 24.117 17.245 5.1291-2.4057-27.431-45.106-31.719-41.595-5.1732 4.2362 7.5069 12.515 1.1085 16.024-4.9213 2.6985-15.133-5.4362-19.241-2.2419-1.6966 1.3195 3.2609 3.0163 3.0809 4.7111-0.26288 2.4746-7.9326 4.3106-5.9131 6.4389z" fill="none" stroke="#000" stroke-linejoin="bevel" stroke-width="1.5311" style="paint-order:stroke markers fill"/>
 <use transform="translate(-283.65 -15.89)" width="100%" height="100%" xlink:href="#path25699"/>
 <g transform="matrix(1.5797 0 0 1.5797 -493.1 26.937)" stroke-width=".63302">
  <use transform="rotate(45 500.48 -163.03)" width="100%" height="100%" xlink:href="#path25699"/>
  <use transform="rotate(90 489.25 -17.8)" width="100%" height="100%" xlink:href="#path25699"/>
  <use transform="rotate(135 484.6 42.358)" width="100%" height="100%" xlink:href="#path25699"/>
  <use transform="rotate(180 481.3 84.897)" width="100%" height="100%" xlink:href="#path25699"/>
  <use transform="rotate(225 478.01 127.43)" width="100%" height="100%" xlink:href="#path25699"/>
  <use transform="rotate(-90 473.36 187.59)" width="100%" height="100%" xlink:href="#path25699"/>
  <use transform="rotate(-45 462.12 332.83)" width="100%" height="100%" xlink:href="#path25699"/>
  <use transform="translate(-205.39 -15.89)" width="100%" height="100%" xlink:href="#path25699"/>
 </g>
</svg>
