<?xml version="1.0" encoding="UTF-8" standalone="no"?>
<!-- Created with Inkscape (http://www.inkscape.org/) -->

<svg
   width="210mm"
   height="210mm"
   viewBox="0 0 210 210"
   version="1.1"
   id="svg3838"
   inkscape:version="1.1 (c68e22c387, 2021-05-23)"
   sodipodi:docname="polygon.svg"
   xmlns:inkscape="http://www.inkscape.org/namespaces/inkscape"
   xmlns:sodipodi="http://sodipodi.sourceforge.net/DTD/sodipodi-0.dtd"
   xmlns="http://www.w3.org/2000/svg"
   xmlns:svg="http://www.w3.org/2000/svg">
  <sodipodi:namedview
     id="namedview3840"
     pagecolor="#ffffff"
     bordercolor="#666666"
     borderopacity="1.0"
     inkscape:pageshadow="2"
     inkscape:pageopacity="0.0"
     inkscape:pagecheckerboard="0"
     inkscape:document-units="mm"
     showgrid="false"
     inkscape:zoom="0.38217593"
     inkscape:cx="457.9043"
     inkscape:cy="320.53301"
     inkscape:window-width="1920"
     inkscape:window-height="1017"
     inkscape:window-x="1072"
     inkscape:window-y="554"
     inkscape:window-maximized="1"
     inkscape:current-layer="layer1" />
  <defs
     id="defs3835" />
  <g
     inkscape:label="Layer 1"
     inkscape:groupmode="layer"
     id="layer1">
    <path
       sodipodi:type="star"
       style="fill:none;stroke:#000000;stroke-width:6;stroke-linejoin:bevel;paint-order:stroke markers fill"
       id="path4559"
       inkscape:flatsided="false"
       sodipodi:sides="5"
       sodipodi:cx="-546.86853"
       sodipodi:cy="-334.92429"
       sodipodi:r1="191.92336"
       sodipodi:r2="191.92336"
       sodipodi:arg1="0.19204802"
       sodipodi:arg2="0.82036655"
       inkscape:rounded="-1.95"
       inkscape:randomized="1"
       d="m -358.47361,-298.29194 c 44.14807,-227.0472 -226.68372,261.475062 -57.51218,103.7396 169.17153,-157.73546 -337.08217,78.29642 -107.50494,50.12229 229.57723,-28.17414 -318.72668,-134.78879 -116.43446,-22.64004 202.29222,112.148754 -178.62844,-296.38926 -80.88998,-86.75463 97.73846,209.634628 29.69979,-344.77911 -14.44828,-117.73191 -44.14807,227.0472 226.68372,-261.47506 57.51218,-103.7396 -169.17153,157.73546 337.08216,-78.29643 107.50494,-50.12229 -229.57723,28.17414 318.72668,134.78879 116.43446,22.64004 -202.29222,-112.14876 178.62844,296.38926 80.88998,86.75463 -97.73846,-209.63463 -29.69979,344.779113 14.44828,117.73191 z"
       transform="matrix(0.26458333,0,0,0.26458333,249.6923,193.61538)"
       inkscape:transform-center-x="-71.566336"
       inkscape:transform-center-y="43.421033" />
  </g>
</svg>
