<?xml version="1.0" encoding="UTF-8" standalone="no"?>
<!-- Created with Inkscape (http://www.inkscape.org/) -->

<svg
   width="210mm"
   height="210mm"
   viewBox="0 0 210 210"
   version="1.1"
   id="svg3838"
   xmlns="http://www.w3.org/2000/svg"
   xmlns:svg="http://www.w3.org/2000/svg">
  <defs
     id="defs3835" />
  <g
     id="layer1">
    <path
       style="fill:none;stroke:#000000;stroke-width:6;stroke-linejoin:bevel;paint-order:stroke markers fill"
       id="path4559"
       d="m -358.47361,-298.29194 c 44.14807,-227.0472 -226.68372,261.475062 -57.51218,103.7396 169.17153,-157.73546 -337.08217,78.29642 -107.50494,50.12229 229.57723,-28.17414 -318.72668,-134.78879 -116.43446,-22.64004 202.29222,112.148754 -178.62844,-296.38926 -80.88998,-86.75463 97.73846,209.634628 29.69979,-344.77911 -14.44828,-117.73191 -44.14807,227.0472 226.68372,-261.47506 57.51218,-103.7396 -169.17153,157.73546 337.08216,-78.29643 107.50494,-50.12229 -229.57723,28.17414 318.72668,134.78879 116.43446,22.64004 -202.29222,-112.14876 178.62844,296.38926 80.88998,86.75463 -97.73846,-209.63463 -29.69979,344.779113 14.44828,117.73191 z"
       transform="matrix(.25,0,0,.25,250,195)" />
       <!-- transform="matrix(0.26458333,0,0,0.26458333,249.6923,193.61538)" -->
  </g>
</svg>
